<?xml version="1.0" encoding="UTF-8"?> <svg xmlns="http://www.w3.org/2000/svg" viewBox="-7643 1123 203.606 139"><defs><style> .cls-1 { fill: #545c66; } .cls-2 { fill: #aab2bd; } .cls-3 { fill: #656d78; } .cls-4 { fill: #3bafda; } .cls-5 { fill: #4fc1e9; } .cls-6 { fill: #ccd1d9; } .cls-7 { fill: #5d9cec; } .cls-8 { fill: #a0d468; } .cls-9 { fill: #ed5565; } .cls-10 { fill: #ffce54; } .cls-11 { fill: #e6e9ed; } .cls-12 { fill: #fff; } .cls-13 { fill: #4a89dc; } </style></defs><g id="i2" transform="translate(-7643 1123)"><g id="Group-5"><g id="_003-diamond" data-name="003-diamond" transform="translate(0 23.493)"><path id="Path" class="cls-1" d="M5.873,5V81.352H1.956L0,79.231V5Z" transform="translate(0 4.789)"></path><path id="Path-2" data-name="Path" class="cls-2" d="M101.8,4.894V9.789H0V4.894C0,2.178,1.888,0,4.242,0H97.561C99.915,0,101.8,2.178,101.8,4.894Z"></path><path id="Path-3" data-name="Path" class="cls-3" d="M100.887,5V34.693H81.31L70.433,47.418l30.454,33.934H3V5Z" transform="translate(2.873 4.789)"></path><path id="Path-4" data-name="Path" class="cls-4" d="M57.159,26,68.324,61.239,37,26Z" transform="translate(35.437 24.901)"></path><path id="Path-5" data-name="Path" class="cls-5" d="M68.535,26,57.768,61.239,47,26Z" transform="translate(45.014 24.901)"></path><path id="Path-6" data-name="Path" class="cls-4" d="M83.324,26,52,61.239,63.165,26Z" transform="translate(49.803 24.901)"></path><path id="Path-7" data-name="Path" class="cls-5" d="M66.691,19,77.577,32.7H58Z" transform="translate(55.549 18.197)"></path><path id="Path-8" data-name="Path" class="cls-4" d="M52.022,19H71.577l-8.7,13.7L52,19Z" transform="translate(49.803 18.197)"></path><path id="Path-9" data-name="Path" class="cls-5" d="M57.746,19,68.535,32.7H47l10.595-13.5V19Z" transform="translate(45.014 18.197)"></path><path id="Path-10" data-name="Path" class="cls-4" d="M62.577,19v.206L51.8,32.7,43,19Z" transform="translate(41.183 18.197)"></path><path id="Path-11" data-name="Path" class="cls-5" d="M48.864,19l8.713,13.7H38Z" transform="translate(36.394 18.197)"></path><g id="Group" transform="translate(3.97 1.958)"><path id="Path-12" data-name="Path" class="cls-6" d="M2.214,3.915A2.085,2.085,0,0,1,.028,1.958,2.064,2.064,0,0,1,2.19,0h.024A2.076,2.076,0,0,1,4.389,1.958,2.076,2.076,0,0,1,2.214,3.915Z" transform="translate(-0.028)"></path><path id="Path-13" data-name="Path" class="cls-6" d="M5.547,3.915A2.085,2.085,0,0,1,3.361,1.958,2.064,2.064,0,0,1,5.523,0h.024A2.076,2.076,0,0,1,7.723,1.958,2.076,2.076,0,0,1,5.547,3.915Z" transform="translate(3.165)"></path><path id="Path-14" data-name="Path" class="cls-6" d="M8.881,3.915A2.085,2.085,0,0,1,6.694,1.958,2.064,2.064,0,0,1,8.857,0h.024a2.076,2.076,0,0,1,2.175,1.958A2.076,2.076,0,0,1,8.881,3.915Z" transform="translate(6.357)"></path></g><path id="Path-15" data-name="Path" class="cls-7" d="M44.094,11.915H9.061A2.011,2.011,0,0,1,7,9.958,2.011,2.011,0,0,1,9.061,8H44.094a2.011,2.011,0,0,1,2.061,1.958A2.011,2.011,0,0,1,44.094,11.915Z" transform="translate(6.704 7.662)"></path><path id="Path-16" data-name="Path" class="cls-8" d="M36.107,16.915H11.259A2.124,2.124,0,0,1,9,14.958,2.124,2.124,0,0,1,11.259,13H36.107a2.124,2.124,0,0,1,2.259,1.958A2.124,2.124,0,0,1,36.107,16.915Z" transform="translate(8.62 12.451)"></path><path id="Path-17" data-name="Path" class="cls-8" d="M34.124,37.915H11.284a1.981,1.981,0,1,1,0-3.915h22.84a1.981,1.981,0,1,1,0,3.915Z" transform="translate(8.62 32.563)"></path><path id="Path-18" data-name="Path" class="cls-8" d="M40.418,16.915H27.2A2.09,2.09,0,0,1,25,14.958,2.09,2.09,0,0,1,27.2,13H40.418a2.09,2.09,0,0,1,2.2,1.958,2.09,2.09,0,0,1-2.2,1.958Z" transform="translate(23.944 12.451)"></path><path id="Path-19" data-name="Path" class="cls-7" d="M22.417,41.915H9.2A1.971,1.971,0,1,1,9.2,38H22.417a1.971,1.971,0,1,1,0,3.915Z" transform="translate(6.704 36.394)"></path><path id="Path-20" data-name="Path" class="cls-9" d="M22.42,20.915H13.284A2.139,2.139,0,0,1,11,18.958,2.139,2.139,0,0,1,13.284,17H22.42A2.139,2.139,0,0,1,24.7,18.958,2.139,2.139,0,0,1,22.42,20.915Z" transform="translate(10.535 16.282)"></path><path id="Path-21" data-name="Path" class="cls-9" d="M51.2,20.915H22.08a1.961,1.961,0,1,1,0-3.915H51.2a1.961,1.961,0,1,1,0,3.915Z" transform="translate(19.155 16.282)"></path><path id="Path-22" data-name="Path" class="cls-10" d="M57.816,25.915H13.128a1.965,1.965,0,1,1,0-3.915H57.816a1.965,1.965,0,1,1,0,3.915Z" transform="translate(10.535 21.07)"></path><path id="Path-23" data-name="Path" class="cls-10" d="M37.107,28.915H12.259A2.123,2.123,0,0,1,10,26.958,2.123,2.123,0,0,1,12.259,25H37.107a2.123,2.123,0,0,1,2.259,1.958A2.123,2.123,0,0,1,37.107,28.915Z" transform="translate(9.577 23.944)"></path><path id="Path-24" data-name="Path" class="cls-9" d="M49.2,32.915H20.08a1.961,1.961,0,1,1,0-3.915H49.2a1.961,1.961,0,1,1,0,3.915Z" transform="translate(17.239 27.775)"></path><path id="Path-25" data-name="Path" class="cls-9" d="M18.342,32.915H13.447A2.242,2.242,0,0,1,11,30.958,2.242,2.242,0,0,1,13.447,29h4.894a2.242,2.242,0,0,1,2.447,1.958A2.242,2.242,0,0,1,18.342,32.915Z" transform="translate(10.535 27.775)"></path><circle id="Oval" class="cls-1" cx="1.958" cy="1.958" r="1.958" transform="translate(0 82.225)"></circle></g><g id="pop-up" transform="translate(45.028)"><path id="Path-26" data-name="Path" class="cls-11" d="M0,131.627a2.579,2.579,0,0,0,2.558,2.584H156.02a2.579,2.579,0,0,0,2.558-2.584V5H0Z" transform="translate(0 4.789)"></path><path id="Path-27" data-name="Path" class="cls-6" d="M158.577,4.894V9.789H0V4.894A4.993,4.993,0,0,1,5.115,0H153.462A4.993,4.993,0,0,1,158.577,4.894Z"></path><path id="Path-28" data-name="Path" class="cls-11" d="M4.944,1H4.915a2.944,2.944,0,1,0,.029,0Z" transform="translate(1.915 0.958)"></path><path id="Path-29" data-name="Path" class="cls-11" d="M8.944,1H8.915a2.944,2.944,0,1,0,.029,0Z" transform="translate(5.746 0.958)"></path><path id="Path-30" data-name="Path" class="cls-11" d="M12.944,1h-.029a2.944,2.944,0,1,0,.029,0Z" transform="translate(9.577 0.958)"></path><path id="Path-31" data-name="Path" class="cls-12" d="M41,11V118.676h65.981l2.54-2.564V13.564L106.981,11Z" transform="translate(39.268 10.535)"></path><path id="Path-32" data-name="Path" class="cls-13" d="M80.464,58a3.918,3.918,0,0,1,0,7.831H52.776a3.918,3.918,0,0,1,0-7.831Z" transform="translate(46.93 55.549)"></path><path id="Path-33" data-name="Path" class="cls-7" d="M80.464,56a3.918,3.918,0,0,1,0,7.831H52.776a3.918,3.918,0,0,1,0-7.831Z" transform="translate(46.93 53.634)"></path><path id="Path-34" data-name="Path" class="cls-3" d="M69.448,24.789a2.447,2.447,0,0,1-1.73-4.177l4.894-4.894a2.447,2.447,0,0,1,3.46,3.46l-4.894,4.894A2.44,2.44,0,0,1,69.448,24.789Z" transform="translate(64.169 14.366)"></path><path id="Path-35" data-name="Path" class="cls-3" d="M74.341,24.789a2.44,2.44,0,0,1-1.73-.717l-4.894-4.894a2.447,2.447,0,0,1,3.46-3.46l4.894,4.894a2.447,2.447,0,0,1-1.73,4.177Z" transform="translate(64.169 14.366)"></path><path id="Path-36" data-name="Path" class="cls-11" d="M96.206,22H46.61A2.676,2.676,0,0,0,44,24.742v8.22A2.676,2.676,0,0,0,46.61,35.7h49.6a2.676,2.676,0,0,0,2.61-2.742v-8.22A2.676,2.676,0,0,0,96.206,22Z" transform="translate(42.141 21.07)"></path><path id="Path-37" data-name="Path" class="cls-11" d="M96.206,31H46.61A2.678,2.678,0,0,0,44,33.741V41.96A2.678,2.678,0,0,0,46.61,44.7h49.6a2.678,2.678,0,0,0,2.61-2.744V33.741A2.678,2.678,0,0,0,96.206,31Z" transform="translate(42.141 29.69)"></path><path id="Path-38" data-name="Path" class="cls-11" d="M96.206,41H46.61A2.576,2.576,0,0,0,44,43.544V63.906a2.576,2.576,0,0,0,2.61,2.544h49.6a2.576,2.576,0,0,0,2.61-2.544V43.544A2.576,2.576,0,0,0,96.206,41Z" transform="translate(42.141 39.268)"></path><path id="Path-39" data-name="Path" class="cls-6" d="M96.206,28.937H46.61A2.787,2.787,0,0,1,44,26v2.937a2.785,2.785,0,0,0,2.61,2.937h49.6a2.785,2.785,0,0,0,2.61-2.937V26a2.787,2.787,0,0,1-2.61,2.937Z" transform="translate(42.141 24.901)"></path><path id="Path-40" data-name="Path" class="cls-6" d="M96.206,37.935H46.61A2.784,2.784,0,0,1,44,35v2.935a2.787,2.787,0,0,0,2.61,2.938h49.6a2.787,2.787,0,0,0,2.61-2.938V35a2.784,2.784,0,0,1-2.61,2.935Z" transform="translate(42.141 33.521)"></path><path id="Path-41" data-name="Path" class="cls-6" d="M96.206,53.935H46.61A2.784,2.784,0,0,1,44,51v2.938a2.785,2.785,0,0,0,2.61,2.935h49.6a2.785,2.785,0,0,0,2.61-2.935V51a2.784,2.784,0,0,1-2.61,2.935Z" transform="translate(42.141 48.845)"></path><circle id="Oval-2" data-name="Oval" class="cls-12" cx="2.937" cy="2.937" r="2.937" transform="translate(142.915 123.338)"></circle><path id="Path-42" data-name="Path" class="cls-13" d="M49,58H84.239v3.915H49Z" transform="translate(46.93 55.549)"></path><path id="Path-43" data-name="Path" class="cls-7" d="M80.464,56a3.918,3.918,0,0,1,0,7.831H52.776a3.918,3.918,0,0,1,0-7.831Z" transform="translate(46.93 53.634)"></path></g><rect id="Rectangle" class="cls-7" width="29.366" height="107.676" transform="translate(50.901 21.535)"></rect><g id="Group-2" transform="translate(74.394 21.535)"><path id="Path-44" data-name="Path" class="cls-12" d="M2.937,0A3.122,3.122,0,0,0,0,3.263v101.15a3.122,3.122,0,0,0,2.937,3.263H44.049a3.122,3.122,0,0,0,2.937-3.263V3.263A3.122,3.122,0,0,0,44.049,0Z"></path><path id="Path-45" data-name="Path" class="cls-13" d="M27.269,55.789H10.139a4.9,4.9,0,1,1,0-9.789h17.13a4.9,4.9,0,1,1,0,9.789Z" transform="translate(4.789 44.056)"></path><g id="Group-2-2" data-name="Group" transform="translate(5.956 26.186)"><path id="Path-46" data-name="Path" class="cls-6" d="M3.387,12.039a3.3,3.3,0,1,1-.037-6.6h.037a3.3,3.3,0,1,1,0,6.6Z" transform="translate(-0.043 4.47)"></path><path id="Path-47" data-name="Path" class="cls-6" d="M25.049,12.039H8.428a3.3,3.3,0,1,1,0-6.6H25.049a3.3,3.3,0,1,1,0,6.6Z" transform="translate(4.801 4.47)"></path><path id="Path-48" data-name="Path" class="cls-6" d="M3.387,17.1a3.3,3.3,0,1,1-.037-6.6h.037a3.3,3.3,0,1,1,0,6.6Z" transform="translate(-0.043 9.316)"></path><path id="Path-49" data-name="Path" class="cls-6" d="M25.049,17.1H8.428a3.3,3.3,0,1,1,0-6.6H25.049a3.3,3.3,0,1,1,0,6.6Z" transform="translate(4.801 9.316)"></path><path id="Path-50" data-name="Path" class="cls-6" d="M3.387,22.157a3.3,3.3,0,1,1-.037-6.6h.037a3.3,3.3,0,1,1,0,6.6Z" transform="translate(-0.043 14.161)"></path><path id="Path-51" data-name="Path" class="cls-6" d="M25.049,22.157H8.428a3.3,3.3,0,1,1,0-6.6H25.049a3.3,3.3,0,1,1,0,6.6Z" transform="translate(4.801 14.161)"></path><path id="Path-52" data-name="Path" class="cls-6" d="M3.387,27.217a3.3,3.3,0,1,1-.037-6.6h.037a3.3,3.3,0,1,1,0,6.6Z" transform="translate(-0.043 19.007)"></path><path id="Path-53" data-name="Path" class="cls-6" d="M25.049,27.217H8.428a3.3,3.3,0,1,1,0-6.6H25.049a3.3,3.3,0,1,1,0,6.6Z" transform="translate(4.801 19.007)"></path><path id="Path-54" data-name="Path" class="cls-6" d="M3.387,6.979a3.3,3.3,0,1,1-.037-6.6h.037a3.3,3.3,0,1,1,0,6.6Z" transform="translate(-0.043 -0.376)"></path><path id="Path-55" data-name="Path" class="cls-6" d="M25.049,6.979H8.428a3.3,3.3,0,1,1,0-6.6H25.049a3.3,3.3,0,1,1,0,6.6Z" transform="translate(4.801 -0.376)"></path></g><path id="Path-56" data-name="Path" class="cls-7" d="M27.269,54.789H10.139a4.9,4.9,0,1,1,0-9.789h17.13a4.9,4.9,0,1,1,0,9.789Z" transform="translate(4.789 43.099)"></path></g></g></g></svg> 